<?xml version="1.0" standalone="no"?>
<!DOCTYPE svg PUBLIC "-//W3C//DTD SVG 20010904//EN"
 "http://www.w3.org/TR/2001/REC-SVG-20010904/DTD/svg10.dtd">
<svg version="1.0" xmlns="http://www.w3.org/2000/svg"
 width="1120.000000pt" height="896.000000pt" viewBox="0 0 1120.000000 896.000000"
 preserveAspectRatio="xMidYMid meet">

<g transform="translate(0.000000,896.000000) scale(0.100000,-0.100000)"
fill="#000000" stroke="none">
<path d="M2852 5064 c10 -10 20 -16 22 -13 3 3 -5 11 -17 18 -21 13 -21 12 -5
-5z"/>
<path d="M4186 5055 c-11 -8 -15 -15 -9 -15 6 0 16 7 23 15 16 19 11 19 -14 0z"/>
<path d="M2917 5029 c7 -7 15 -10 18 -7 3 3 -2 9 -12 12 -14 6 -15 5 -6 -5z"/>
<path d="M4134 5024 c-18 -14 -18 -15 4 -4 12 6 22 13 22 15 0 8 -5 6 -26 -11z"/>
<path d="M4068 4989 c-21 -11 -38 -22 -38 -24 0 -3 18 4 40 15 22 11 40 23 40
25 0 7 0 7 -42 -16z"/>
<path d="M4611 4994 c0 -11 3 -14 6 -6 3 7 2 16 -1 19 -3 4 -6 -2 -5 -13z"/>
<path d="M3030 4966 c0 -3 14 -12 30 -21 17 -9 30 -13 30 -11 0 3 -13 12 -30
21 -16 9 -30 13 -30 11z"/>
<path d="M2480 4931 c5 -11 15 -23 21 -27 6 -3 3 5 -6 20 -20 30 -30 35 -15 7z"/>
<path d="M3968 4934 c-16 -8 -28 -17 -28 -20 0 -3 5 -2 10 1 6 4 19 1 28 -6
14 -11 15 -11 5 1 -10 11 -9 16 5 26 23 18 13 17 -20 -2z"/>
<path d="M5313 4926 c-105 -26 -175 -95 -194 -189 -32 -156 42 -257 224 -307
149 -42 197 -76 197 -140 0 -35 -28 -79 -63 -96 -52 -28 -158 -23 -237 10 -88
38 -99 37 -127 -4 -33 -47 -28 -88 13 -112 75 -44 292 -63 388 -34 113 34 175
111 184 225 5 81 -8 129 -51 177 -38 45 -77 64 -206 104 -129 40 -166 69 -165
130 2 55 32 86 98 101 45 10 62 9 132 -10 129 -36 130 -36 148 -10 25 36 21
93 -7 112 -71 46 -238 68 -334 43z"/>
<path d="M7524 4926 c-17 -8 -34 -21 -38 -31 -3 -9 -6 -198 -6 -420 0 -456 -5
-430 82 -430 71 0 78 14 78 148 l0 109 130 -126 c72 -69 142 -129 156 -132 37
-9 78 24 82 66 3 30 -6 41 -112 142 -64 61 -116 115 -116 122 0 6 48 53 105
104 112 99 128 126 101 167 -13 19 -25 25 -54 25 -34 0 -48 -11 -165 -121
l-127 -121 0 234 c0 128 -4 238 -8 245 -7 11 -55 33 -70 33 -4 -1 -21 -7 -38
-14z"/>
<path d="M4547 4890 c-41 -43 -60 -51 -51 -22 5 13 4 14 -4 3 -6 -8 -8 -19 -6
-25 3 -7 -15 -17 -41 -24 -36 -9 -88 -9 -242 0 -153 9 -198 9 -201 0 -2 -7 -7
-10 -11 -7 -4 2 -24 5 -45 7 -25 1 -35 6 -32 15 5 11 1 11 -16 2 l-21 -11 24
-15 c17 -10 18 -12 4 -8 -57 20 -75 23 -75 14 0 -5 -4 -9 -8 -9 -5 0 -9 6 -9
14 0 10 9 13 26 10 18 -3 22 -2 13 4 -10 7 -5 15 22 31 70 43 34 29 -114 -47
-149 -76 -150 -77 -227 -77 -71 0 -86 4 -165 42 -48 23 -90 38 -93 32 -6 -9 1
-13 18 -10 5 1 6 -3 2 -9 -4 -7 -14 -5 -28 5 -27 19 -68 20 -61 1 6 -17 -59
-14 -81 4 -9 7 -23 9 -37 4 -22 -8 -22 -8 7 -14 23 -5 11 -8 -47 -14 -65 -6
-80 -5 -94 8 -9 10 -32 16 -57 16 -31 0 -38 -3 -27 -10 11 -8 5 -10 -22 -8
-22 1 -40 8 -43 16 -4 12 -18 13 -65 9 -37 -4 -60 -3 -60 3 0 6 -7 10 -16 10
-8 0 -12 -4 -9 -10 10 -16 -17 -12 -50 8 -42 25 -68 34 -59 21 3 -6 -10 -27
-29 -47 -66 -68 -95 -175 -76 -279 13 -72 31 -108 77 -155 l35 -37 -40 -44
c-106 -114 -101 -320 10 -435 39 -41 369 -238 727 -435 185 -101 330 -108 519
-23 126 57 121 58 246 -25 251 -165 436 -279 454 -279 29 0 46 29 44 74 -1 23
-29 129 -63 236 -79 250 -90 293 -79 313 5 9 35 30 67 48 130 75 194 179 195
319 0 84 -21 147 -74 212 l-30 38 36 47 c45 59 65 128 64 222 -1 107 -14 134
-24 51 -6 -42 -10 -55 -13 -37 -2 15 -7 27 -11 27 -5 0 -6 -12 -3 -27 2 -16 1
-25 -3 -21 -4 4 -7 26 -7 50 l1 43 -15 -28 c-8 -15 -12 -32 -9 -37 11 -18 -27
-10 -41 8 -12 16 -13 16 -26 -1 -10 -13 -21 -16 -46 -11 -17 4 -32 10 -32 15
0 5 -20 9 -45 9 -38 0 -44 -3 -39 -17 5 -15 4 -16 -5 -3 -14 20 -14 43 1 34 7
-5 9 -2 5 8 -3 9 0 21 6 27 9 9 8 11 -5 6 -10 -4 -20 -22 -24 -40 -3 -18 -14
-42 -24 -53 -10 -11 -17 -23 -14 -26 2 -3 1 -4 -2 -2 -3 3 -27 -8 -52 -23
-103 -62 -466 -255 -520 -277 -123 -50 -219 -41 -372 35 -137 69 -471 259
-497 283 -12 11 -25 35 -29 52 -6 28 -19 45 -35 46 -3 0 -5 -12 -4 -27 1 -16
0 -20 -2 -11 -3 10 -10 15 -19 11 -31 -12 -170 39 -159 58 4 6 -3 8 -19 5 -18
-3 -23 -1 -19 10 3 8 9 11 14 8 14 -8 10 6 -6 22 -20 20 -20 41 0 24 12 -10
13 -8 10 10 -7 37 22 33 78 -9 29 -23 59 -41 65 -41 7 0 12 -4 12 -8 0 -5 17
-16 38 -26 20 -10 71 -37 112 -61 506 -290 532 -303 648 -312 138 -10 199 14
620 253 106 60 210 118 231 129 21 11 54 33 73 48 20 15 45 29 56 30 12 0 18
5 16 9 -7 11 22 39 31 30 5 -4 5 -2 2 4 -4 7 -1 14 7 17 12 5 63 67 54 67 -2
0 -20 -18 -41 -40z m-1797 -95 c-7 -8 -14 -15 -15 -15 -2 0 -5 7 -9 15 -4 10
1 15 16 15 17 0 18 -2 8 -15z m-238 -58 c-19 -22 -36 -3 -19 23 8 13 13 15 23
6 10 -9 9 -15 -4 -29z m2085 -179 c-3 -8 -6 -5 -6 6 -1 11 2 17 5 13 3 -3 4
-12 1 -19z m-314 -435 c-16 -33 -45 -52 -238 -161 -121 -68 -263 -145 -315
-170 -94 -47 -96 -47 -196 -47 -98 0 -103 1 -185 42 -115 58 -520 290 -541
311 -20 20 -36 82 -20 82 5 0 101 -52 213 -117 112 -64 251 -139 309 -167 100
-48 110 -50 201 -54 153 -7 174 2 564 221 229 130 245 134 208 60z"/>
<path d="M2495 4750 c-3 -5 -1 -10 4 -10 6 0 11 5 11 10 0 6 -2 10 -4 10 -3 0
-8 -4 -11 -10z"/>
<path d="M3110 4915 c0 -3 17 -12 38 -22 58 -26 60 -26 17 1 -39 25 -55 31
-55 21z"/>
<path d="M2517 4878 c2 -5 10 -8 18 -8 8 0 16 3 18 8 3 4 -5 7 -18 7 -13 0
-21 -3 -18 -7z"/>
<path d="M3224 4855 c11 -8 24 -15 29 -15 4 0 5 -4 2 -10 -3 -5 -1 -10 4 -10
22 0 10 20 -21 35 -29 14 -31 14 -14 0z"/>
<path d="M5880 4832 c-18 -14 -22 -30 -25 -82 -2 -36 -4 -71 -4 -77 -1 -8 -17
-13 -44 -13 -52 0 -67 -13 -67 -58 0 -56 15 -72 65 -72 l45 0 0 -167 c0 -93 5
-185 10 -205 23 -80 83 -118 189 -118 100 0 151 44 122 106 -9 21 -17 24 -70
24 -88 0 -91 7 -91 202 l0 158 58 0 c73 0 102 18 102 65 0 51 -21 65 -96 65
l-64 0 0 79 c0 71 -2 82 -22 95 -30 21 -81 20 -108 -2z"/>
<path d="M8491 4833 c-18 -15 -21 -30 -22 -95 l-1 -78 -49 0 c-52 0 -79 -22
-79 -65 0 -41 28 -65 75 -65 l43 0 4 -187 c4 -208 10 -231 70 -275 29 -20 44
-23 121 -22 77 1 90 4 112 24 54 51 15 118 -59 104 -26 -4 -43 -2 -61 10 -25
16 -25 17 -25 181 l0 165 60 0 c47 0 64 4 80 20 24 24 26 57 4 88 -13 19 -24
22 -80 22 l-64 0 0 75 c0 62 -4 79 -20 95 -25 25 -80 26 -109 3z"/>
<path d="M4524 4808 c-4 -7 -3 -8 5 -4 6 4 20 2 29 -6 15 -12 16 -11 3 5 -16
20 -27 22 -37 5z"/>
<path d="M4574 4762 c0 -11 5 -20 11 -19 5 1 9 -4 8 -10 -2 -7 2 -13 7 -13 15
0 12 15 -8 40 -17 21 -18 21 -18 2z"/>
<path d="M8130 4776 c0 -2 7 -7 16 -10 8 -3 12 -2 9 4 -6 10 -25 14 -25 6z"/>
<path d="M4571 4704 c0 -11 3 -14 6 -6 3 7 2 16 -1 19 -3 4 -6 -2 -5 -13z"/>
<path d="M6402 4669 c-100 -19 -133 -52 -118 -115 10 -39 38 -47 89 -25 131
56 237 24 237 -72 0 -23 -3 -24 -103 -30 -114 -7 -157 -18 -204 -53 -68 -51
-83 -187 -28 -260 45 -59 69 -69 165 -69 74 0 91 3 131 27 l46 27 11 -23 c22
-49 125 -41 138 11 10 39 -3 405 -16 446 -18 59 -74 114 -133 132 -55 16 -146
18 -215 4z m206 -393 c3 -53 -11 -76 -60 -102 -41 -21 -114 -18 -138 6 -42 42
-14 122 48 136 15 3 32 7 37 9 6 2 33 3 60 2 l50 -2 3 -49z"/>
<path d="M7078 4666 c-87 -23 -153 -85 -189 -176 -9 -22 -14 -73 -14 -135 0
-83 4 -109 23 -150 50 -110 142 -165 276 -165 153 0 240 56 210 134 -13 33
-40 37 -96 15 -76 -30 -157 -23 -199 17 -43 40 -59 82 -59 154 0 73 17 117 59
153 47 39 89 43 170 17 79 -25 104 -21 120 18 15 35 1 76 -31 93 -69 37 -185
48 -270 25z"/>
<path d="M8137 4656 c-17 -13 -18 -35 -19 -253 -1 -365 -3 -338 32 -353 32
-13 84 -8 107 11 10 9 13 69 13 294 0 260 -1 283 -18 298 -23 21 -90 22 -115
3z"/>
</g>
</svg>
